<?xml version="1.0" encoding="UTF-8"?>
<svg xmlns="http://www.w3.org/2000/svg" viewBox="-24 -24 916 170">
  <path fill="#FFFFFF" fill-rule="evenodd" d="M60.94,0.00L413.06,0.00A60.94,60.94 0 0 1 413.06,121.88L60.94,121.88A60.94,60.94 0 0 1 60.94,0.00ZM60.94,12.06L413.06,12.06A48.88,48.88 0 0 1 413.06,109.81L60.94,109.81A48.88,48.88 0 0 1 60.94,12.06ZM271.50,97.02C271.00,97.09 270.50,97.11 270.00,97.12C269.50,97.14 269.00,97.12 268.50,97.12C267.99,97.13 267.49,97.13 266.99,97.12C266.49,97.12 265.99,97.15 265.49,97.12C264.99,97.10 264.49,97.03 263.99,96.98C263.49,96.93 262.99,96.90 262.49,96.84C262.00,96.77 261.50,96.68 261.01,96.57C260.52,96.47 260.05,96.31 259.55,96.20C259.06,96.10 258.57,96.01 258.07,95.95C257.57,95.90 257.07,95.92 256.57,95.86C256.07,95.80 255.57,95.74 255.09,95.60C254.61,95.46 254.16,95.24 253.70,95.04C253.24,94.84 252.79,94.61 252.34,94.39C251.88,94.18 251.44,93.94 250.97,93.77C250.50,93.60 249.98,93.57 249.52,93.38C249.06,93.20 248.61,92.95 248.19,92.68C247.77,92.41 247.35,92.11 247.00,91.77C246.64,91.42 246.28,91.04 246.08,90.60C245.87,90.16 245.92,89.60 245.78,89.13C245.64,88.65 245.44,88.18 245.23,87.73C245.02,87.28 244.63,86.88 244.52,86.41C244.41,85.95 244.42,85.39 244.57,84.94C244.71,84.48 245.11,84.10 245.40,83.70C245.69,83.29 245.98,82.87 246.30,82.49C246.63,82.12 247.02,81.79 247.37,81.43C247.72,81.07 248.00,80.60 248.41,80.35C248.82,80.09 249.33,79.97 249.82,79.89C250.30,79.82 250.82,79.88 251.32,79.88C251.82,79.87 252.33,79.87 252.83,79.88C253.33,79.88 253.85,79.81 254.33,79.91C254.81,80.00 255.28,80.20 255.71,80.45C256.13,80.70 256.43,81.20 256.87,81.39C257.31,81.59 257.85,81.56 258.34,81.63C258.84,81.70 259.34,81.72 259.83,81.81C260.33,81.89 260.82,82.01 261.30,82.14C261.79,82.26 262.28,82.37 262.74,82.56C263.21,82.74 263.62,83.06 264.08,83.25C264.54,83.43 265.03,83.57 265.52,83.68C266.01,83.78 266.51,83.83 267.01,83.87C267.51,83.90 268.01,83.87 268.51,83.88C269.01,83.88 269.52,83.92 270.02,83.87C270.51,83.82 271.05,83.81 271.48,83.60C271.91,83.39 272.20,82.90 272.60,82.61C273.01,82.32 273.47,82.11 273.90,81.86C274.34,81.62 274.80,81.41 275.21,81.12C275.61,80.84 275.99,80.49 276.35,80.14C276.70,79.79 277.13,79.46 277.34,79.03C277.55,78.60 277.57,78.06 277.62,77.57C277.67,77.07 277.63,76.56 277.64,76.06C277.65,75.56 277.72,75.05 277.68,74.56C277.63,74.06 277.52,73.55 277.35,73.09C277.17,72.63 276.93,72.18 276.63,71.79C276.32,71.40 275.93,71.06 275.53,70.76C275.13,70.46 274.69,70.22 274.24,69.98C273.80,69.75 273.34,69.55 272.89,69.34C272.43,69.12 271.98,68.90 271.53,68.70C271.07,68.49 270.62,68.27 270.14,68.11C269.67,67.95 269.16,67.88 268.68,67.74C268.20,67.60 267.74,67.39 267.26,67.25C266.78,67.11 266.29,67.02 265.80,66.90C265.31,66.79 264.82,66.69 264.34,66.55C263.86,66.41 263.39,66.22 262.91,66.08C262.43,65.93 261.94,65.83 261.46,65.68C260.98,65.53 260.52,65.32 260.05,65.16C259.57,65.00 259.08,64.88 258.61,64.73C258.13,64.57 257.66,64.39 257.19,64.23C256.71,64.07 256.22,63.95 255.76,63.77C255.29,63.58 254.84,63.36 254.39,63.13C253.95,62.90 253.51,62.65 253.09,62.38C252.67,62.11 252.28,61.79 251.87,61.50C251.46,61.22 251.02,60.97 250.61,60.68C250.21,60.38 249.80,60.08 249.42,59.76C249.05,59.43 248.68,59.08 248.35,58.70C248.03,58.32 247.73,57.91 247.46,57.49C247.18,57.08 246.90,56.65 246.69,56.20C246.47,55.75 246.30,55.28 246.15,54.80C246.00,54.32 245.88,53.83 245.80,53.34C245.71,52.84 245.67,52.34 245.63,51.84C245.59,51.34 245.56,50.84 245.54,50.34C245.51,49.84 245.46,49.35 245.47,48.85C245.48,48.35 245.59,47.85 245.62,47.35C245.65,46.85 245.62,46.35 245.62,45.85C245.63,45.34 245.60,44.84 245.63,44.34C245.65,43.84 245.67,43.33 245.77,42.85C245.87,42.36 246.04,41.88 246.24,41.42C246.44,40.96 246.74,40.55 246.96,40.10C247.19,39.65 247.40,39.20 247.58,38.73C247.77,38.27 247.86,37.76 248.08,37.32C248.31,36.88 248.62,36.48 248.94,36.09C249.25,35.70 249.65,35.38 249.95,34.98C250.26,34.59 250.51,34.15 250.78,33.73C251.05,33.31 251.23,32.79 251.57,32.45C251.92,32.11 252.38,31.85 252.84,31.70C253.30,31.55 253.88,31.70 254.34,31.54C254.79,31.38 255.19,31.04 255.56,30.73C255.94,30.41 256.19,29.90 256.59,29.64C257.00,29.38 257.52,29.29 258.00,29.15C258.48,29.01 258.99,28.94 259.46,28.80C259.94,28.66 260.40,28.44 260.88,28.29C261.36,28.14 261.85,28.01 262.33,27.89C262.81,27.76 263.30,27.65 263.79,27.52C264.27,27.40 264.76,27.26 265.24,27.13C265.73,27.00 266.21,26.85 266.70,26.74C267.18,26.63 267.68,26.53 268.17,26.45C268.67,26.38 269.17,26.32 269.67,26.29C270.17,26.26 270.67,26.22 271.16,26.27C271.66,26.32 272.15,26.45 272.64,26.57C273.12,26.69 273.60,26.84 274.08,26.99C274.56,27.13 275.03,27.33 275.52,27.44C276.00,27.56 276.50,27.62 277.00,27.69C277.49,27.76 277.99,27.81 278.49,27.87C278.99,27.94 279.49,27.97 279.98,28.06C280.47,28.16 280.97,28.26 281.44,28.43C281.91,28.60 282.36,28.84 282.79,29.09C283.22,29.34 283.63,29.64 284.04,29.92C284.45,30.21 284.83,30.53 285.25,30.80C285.68,31.07 286.17,31.25 286.56,31.54C286.96,31.84 287.36,32.18 287.62,32.60C287.88,33.01 287.97,33.53 288.10,34.02C288.22,34.50 288.32,35.00 288.36,35.50C288.39,35.99 288.40,36.51 288.33,37.00C288.26,37.49 288.10,37.98 287.95,38.45C287.80,38.93 287.67,39.42 287.44,39.86C287.21,40.30 286.93,40.75 286.59,41.10C286.24,41.45 285.78,41.68 285.35,41.94C284.93,42.19 284.48,42.44 284.01,42.62C283.55,42.81 283.06,42.98 282.57,43.03C282.08,43.09 281.57,43.01 281.08,42.95C280.58,42.88 280.09,42.77 279.60,42.65C279.12,42.52 278.65,42.35 278.17,42.21C277.68,42.07 277.19,41.97 276.71,41.82C276.24,41.66 275.79,41.42 275.32,41.26C274.84,41.10 274.35,40.98 273.87,40.85C273.39,40.72 272.90,40.59 272.41,40.47C271.93,40.35 271.44,40.22 270.95,40.13C270.46,40.04 269.96,39.97 269.46,39.94C268.96,39.90 268.46,39.88 267.96,39.92C267.46,39.96 266.96,40.06 266.48,40.20C266.00,40.33 265.54,40.54 265.07,40.72C264.61,40.90 264.11,41.04 263.68,41.29C263.25,41.53 262.85,41.85 262.49,42.20C262.14,42.55 261.80,42.95 261.55,43.38C261.30,43.80 261.10,44.28 260.99,44.76C260.88,45.24 260.88,45.76 260.88,46.25C260.87,46.75 260.83,47.29 260.97,47.75C261.11,48.22 261.40,48.66 261.73,49.03C262.05,49.40 262.50,49.67 262.91,49.96C263.32,50.24 263.75,50.51 264.20,50.73C264.64,50.95 265.14,51.08 265.60,51.27C266.06,51.47 266.51,51.69 266.97,51.90C267.42,52.11 267.89,52.30 268.32,52.55C268.75,52.80 269.12,53.19 269.57,53.40C270.01,53.60 270.50,53.77 270.99,53.81C271.48,53.86 271.99,53.64 272.49,53.65C272.98,53.66 273.48,53.76 273.97,53.87C274.45,53.98 274.94,54.13 275.40,54.33C275.85,54.54 276.24,54.89 276.70,55.09C277.15,55.29 277.64,55.41 278.12,55.55C278.61,55.68 279.11,55.76 279.59,55.90C280.07,56.04 280.56,56.17 281.01,56.39C281.46,56.60 281.83,56.96 282.26,57.21C282.69,57.47 283.14,57.69 283.59,57.93C284.03,58.17 284.47,58.40 284.92,58.63C285.37,58.85 285.85,59.02 286.28,59.28C286.70,59.53 287.12,59.83 287.49,60.17C287.85,60.50 288.20,60.87 288.49,61.28C288.78,61.68 288.89,62.23 289.22,62.59C289.55,62.94 290.12,63.07 290.47,63.41C290.83,63.75 291.10,64.19 291.35,64.62C291.59,65.05 291.75,65.54 291.94,66.00C292.13,66.47 292.33,66.93 292.49,67.40C292.64,67.88 292.74,68.37 292.87,68.86C293.01,69.34 293.17,69.82 293.29,70.31C293.40,70.79 293.53,71.28 293.59,71.78C293.64,72.27 293.62,72.78 293.62,73.28C293.63,73.78 293.62,74.28 293.62,74.79C293.63,75.29 293.63,75.79 293.62,76.29C293.62,76.79 293.65,77.30 293.60,77.79C293.56,78.29 293.47,78.79 293.37,79.28C293.26,79.77 293.13,80.26 292.98,80.73C292.83,81.21 292.67,81.69 292.48,82.15C292.28,82.61 292.04,83.05 291.81,83.50C291.59,83.95 291.37,84.40 291.14,84.84C290.90,85.29 290.66,85.72 290.41,86.16C290.16,86.59 289.94,87.05 289.64,87.45C289.35,87.86 288.98,88.20 288.66,88.58C288.33,88.97 288.06,89.39 287.71,89.75C287.37,90.11 286.98,90.44 286.58,90.75C286.19,91.05 285.75,91.31 285.34,91.60C284.94,91.89 284.54,92.21 284.13,92.49C283.72,92.77 283.30,93.05 282.87,93.30C282.44,93.56 281.99,93.80 281.55,94.04C281.11,94.27 280.67,94.53 280.21,94.72C279.75,94.91 279.25,95.00 278.78,95.17C278.30,95.33 277.85,95.55 277.37,95.69C276.89,95.83 276.39,95.89 275.90,96.00C275.41,96.11 274.91,96.21 274.43,96.33C273.94,96.45 273.46,96.60 272.97,96.72C272.49,96.83 272.00,96.95 271.50,97.02ZM83.25,95.77C82.75,95.82 82.25,95.86 81.75,95.87C81.25,95.89 80.74,95.87 80.24,95.88C79.74,95.88 79.24,95.88 78.73,95.88C78.23,95.88 77.73,95.88 77.23,95.88C76.72,95.88 76.22,95.88 75.72,95.88C75.22,95.88 74.71,95.88 74.21,95.88C73.71,95.88 73.21,95.88 72.70,95.88C72.20,95.88 71.70,95.88 71.20,95.88C70.69,95.88 70.19,95.88 69.69,95.88C69.19,95.88 68.68,95.88 68.18,95.88C67.68,95.88 67.18,95.88 66.67,95.88C66.17,95.88 65.67,95.88 65.17,95.88C64.66,95.88 64.16,95.88 63.66,95.88C63.16,95.88 62.65,95.88 62.15,95.88C61.65,95.87 61.15,95.88 60.64,95.87C60.14,95.87 59.64,95.89 59.14,95.85C58.64,95.80 58.14,95.72 57.65,95.60C57.16,95.49 56.68,95.35 56.21,95.16C55.75,94.96 55.30,94.73 54.89,94.45C54.47,94.17 54.07,93.85 53.73,93.49C53.39,93.12 53.10,92.71 52.85,92.28C52.60,91.84 52.40,91.37 52.25,90.90C52.09,90.42 51.97,89.93 51.91,89.43C51.85,88.94 51.88,88.43 51.88,87.93C51.87,87.42 51.88,86.92 51.88,86.42C51.87,85.92 51.88,85.41 51.88,84.91C51.88,84.41 51.88,83.91 51.88,83.40C51.88,82.90 51.88,82.40 51.88,81.90C51.88,81.39 51.88,80.89 51.88,80.39C51.88,79.89 51.88,79.38 51.88,78.88C51.88,78.38 51.88,77.88 51.88,77.37C51.88,76.87 51.88,76.37 51.88,75.87C51.88,75.36 51.88,74.86 51.88,74.36C51.88,73.86 51.88,73.35 51.88,72.85C51.88,72.35 51.88,71.85 51.88,71.34C51.88,70.84 51.88,70.34 51.88,69.84C51.88,69.33 51.88,68.83 51.88,68.33C51.88,67.83 51.88,67.32 51.88,66.82C51.88,66.32 51.88,65.82 51.88,65.31C51.88,64.81 51.88,64.31 51.88,63.81C51.88,63.30 51.88,62.80 51.88,62.30C51.88,61.80 51.88,61.29 51.88,60.79C51.88,60.29 51.88,59.79 51.88,59.29C51.88,58.78 51.88,58.28 51.88,57.78C51.88,57.28 51.88,56.77 51.88,56.27C51.88,55.77 51.88,55.27 51.88,54.76C51.88,54.26 51.88,53.76 51.88,53.26C51.88,52.75 51.88,52.25 51.88,51.75C51.88,51.25 51.88,50.74 51.88,50.24C51.88,49.74 51.88,49.24 51.88,48.73C51.88,48.23 51.88,47.73 51.88,47.23C51.88,46.72 51.88,46.22 51.88,45.72C51.88,45.22 51.88,44.71 51.88,44.21C51.88,43.71 51.88,43.21 51.88,42.70C51.88,42.20 51.88,41.70 51.88,41.20C51.88,40.69 51.88,40.19 51.88,39.69C51.88,39.19 51.88,38.68 51.88,38.18C51.88,37.68 51.87,37.18 51.88,36.67C51.88,36.17 51.87,35.67 51.88,35.17C51.88,34.66 51.83,34.15 51.89,33.66C51.94,33.17 51.98,32.62 52.21,32.20C52.44,31.78 52.91,31.50 53.27,31.15C53.63,30.81 54.05,30.51 54.38,30.15C54.72,29.78 54.93,29.28 55.30,28.95C55.67,28.63 56.13,28.38 56.59,28.20C57.05,28.03 57.57,27.95 58.06,27.89C58.56,27.84 59.07,27.88 59.57,27.88C60.07,27.87 60.57,27.88 61.08,27.88C61.58,27.87 62.08,27.88 62.58,27.88C63.09,27.88 63.59,27.88 64.09,27.88C64.59,27.88 65.10,27.88 65.60,27.88C66.10,27.88 66.60,27.88 67.11,27.88C67.61,27.88 68.11,27.88 68.61,27.88C69.12,27.88 69.62,27.88 70.12,27.88C70.62,27.88 71.13,27.88 71.63,27.88C72.13,27.88 72.63,27.88 73.14,27.88C73.64,27.88 74.14,27.88 74.64,27.88C75.15,27.88 75.65,27.88 76.15,27.88C76.65,27.87 77.16,27.88 77.66,27.87C78.16,27.87 78.66,27.88 79.16,27.84C79.66,27.81 80.16,27.67 80.66,27.65C81.16,27.63 81.67,27.65 82.16,27.72C82.65,27.80 83.14,27.95 83.62,28.09C84.11,28.22 84.60,28.35 85.06,28.54C85.52,28.74 85.92,29.05 86.38,29.27C86.83,29.49 87.31,29.64 87.77,29.85C88.23,30.05 88.68,30.28 89.13,30.50C89.58,30.72 90.03,30.94 90.47,31.18C90.92,31.41 91.38,31.63 91.78,31.93C92.18,32.23 92.52,32.61 92.86,32.97C93.21,33.34 93.55,33.71 93.85,34.11C94.15,34.51 94.39,34.96 94.66,35.38C94.94,35.80 95.25,36.20 95.48,36.64C95.71,37.09 95.88,37.57 96.05,38.04C96.23,38.51 96.39,38.99 96.53,39.47C96.67,39.95 96.78,40.44 96.88,40.93C96.98,41.42 97.05,41.92 97.13,42.42C97.21,42.91 97.31,43.41 97.35,43.91C97.39,44.41 97.39,44.91 97.37,45.41C97.36,45.92 97.36,46.42 97.27,46.92C97.18,47.41 96.99,47.88 96.84,48.36C96.69,48.84 96.52,49.31 96.36,49.79C96.21,50.27 96.08,50.76 95.91,51.23C95.74,51.70 95.59,52.19 95.33,52.61C95.07,53.03 94.69,53.39 94.36,53.76C94.03,54.14 93.68,54.50 93.33,54.86C92.98,55.22 92.65,55.60 92.27,55.93C91.89,56.25 91.46,56.53 91.06,56.82C90.66,57.12 90.01,57.38 89.85,57.72C89.69,58.06 89.83,58.58 90.11,58.88C90.38,59.17 91.03,59.27 91.49,59.47C91.95,59.68 92.43,59.85 92.86,60.09C93.30,60.34 93.68,60.68 94.11,60.93C94.54,61.19 95.01,61.38 95.44,61.63C95.87,61.89 96.29,62.16 96.69,62.45C97.09,62.75 97.45,63.11 97.85,63.42C98.24,63.73 98.69,63.98 99.04,64.33C99.39,64.68 99.68,65.11 99.96,65.52C100.24,65.94 100.48,66.38 100.72,66.82C100.96,67.27 101.18,67.72 101.40,68.17C101.62,68.62 101.84,69.07 102.04,69.54C102.23,70.00 102.42,70.47 102.56,70.95C102.70,71.43 102.78,71.93 102.87,72.42C102.95,72.92 103.03,73.42 103.08,73.91C103.12,74.41 103.12,74.92 103.12,75.42C103.13,75.92 103.13,76.43 103.09,76.93C103.05,77.43 102.96,77.92 102.88,78.42C102.81,78.92 102.75,79.42 102.67,79.91C102.59,80.41 102.53,80.91 102.40,81.39C102.27,81.87 102.08,82.34 101.89,82.81C101.70,83.27 101.46,83.72 101.26,84.18C101.07,84.64 100.94,85.14 100.71,85.58C100.49,86.03 100.20,86.45 99.92,86.86C99.64,87.28 99.35,87.69 99.03,88.08C98.71,88.47 98.35,88.82 98.02,89.19C97.68,89.57 97.38,89.98 97.02,90.32C96.66,90.67 96.26,90.98 95.86,91.28C95.45,91.58 95.03,91.85 94.61,92.12C94.18,92.38 93.75,92.65 93.31,92.88C92.86,93.11 92.40,93.30 91.94,93.51C91.48,93.71 91.02,93.91 90.56,94.11C90.10,94.31 89.64,94.53 89.17,94.70C88.70,94.86 88.21,94.99 87.72,95.10C87.23,95.20 86.73,95.24 86.23,95.32C85.73,95.40 85.24,95.49 84.74,95.56C84.25,95.64 83.75,95.72 83.25,95.77ZM155.50,95.80C155.01,95.89 154.50,95.86 154.00,95.87C153.50,95.89 153.00,95.87 152.49,95.88C151.99,95.88 151.49,95.88 150.99,95.88C150.49,95.88 149.99,95.88 149.48,95.88C148.98,95.88 148.48,95.88 147.98,95.88C147.48,95.88 146.98,95.88 146.47,95.88C145.97,95.88 145.47,95.88 144.97,95.88C144.47,95.88 143.97,95.88 143.46,95.88C142.96,95.88 142.46,95.88 141.96,95.88C141.46,95.88 140.96,95.88 140.45,95.88C139.95,95.88 139.45,95.88 138.95,95.88C138.45,95.88 137.95,95.88 137.44,95.88C136.94,95.88 136.44,95.88 135.94,95.88C135.44,95.88 134.94,95.88 134.43,95.88C133.93,95.88 133.43,95.88 132.93,95.88C132.43,95.88 131.93,95.88 131.42,95.88C130.92,95.88 130.42,95.88 129.92,95.88C129.42,95.87 128.91,95.90 128.41,95.87C127.91,95.85 127.40,95.85 126.92,95.74C126.43,95.63 125.97,95.42 125.51,95.23C125.05,95.03 124.57,94.85 124.15,94.58C123.73,94.32 123.31,94.01 122.99,93.64C122.67,93.27 122.40,92.82 122.22,92.36C122.04,91.90 121.98,91.38 121.90,90.89C121.82,90.40 121.76,89.90 121.71,89.40C121.67,88.90 121.64,88.40 121.63,87.90C121.61,87.40 121.63,86.89 121.62,86.39C121.62,85.89 121.62,85.39 121.62,84.89C121.62,84.39 121.62,83.88 121.62,83.38C121.62,82.88 121.62,82.38 121.62,81.88C121.62,81.38 121.62,80.87 121.62,80.37C121.62,79.87 121.62,79.37 121.62,78.87C121.62,78.37 121.62,77.86 121.62,77.36C121.62,76.86 121.62,76.36 121.62,75.86C121.62,75.36 121.62,74.85 121.62,74.35C121.62,73.85 121.62,73.35 121.62,72.85C121.62,72.35 121.62,71.84 121.62,71.34C121.62,70.84 121.62,70.34 121.62,69.84C121.62,69.34 121.62,68.83 121.62,68.33C121.62,67.83 121.62,67.33 121.62,66.83C121.62,66.33 121.62,65.82 121.62,65.32C121.62,64.82 121.62,64.32 121.62,63.82C121.62,63.32 121.62,62.81 121.62,62.31C121.62,61.81 121.62,61.31 121.62,60.81C121.62,60.31 121.62,59.80 121.62,59.30C121.62,58.80 121.62,58.30 121.62,57.80C121.62,57.30 121.62,56.79 121.62,56.29C121.62,55.79 121.62,55.29 121.62,54.79C121.62,54.29 121.62,53.78 121.62,53.28C121.62,52.78 121.62,52.28 121.62,51.78C121.62,51.28 121.62,50.77 121.62,50.27C121.62,49.77 121.62,49.27 121.62,48.77C121.62,48.27 121.62,47.77 121.62,47.26C121.62,46.76 121.62,46.26 121.62,45.76C121.62,45.26 121.62,44.76 121.62,44.25C121.62,43.75 121.62,43.25 121.62,42.75C121.62,42.25 121.62,41.75 121.62,41.24C121.62,40.74 121.62,40.24 121.62,39.74C121.62,39.24 121.62,38.74 121.62,38.23C121.62,37.73 121.62,37.23 121.62,36.73C121.63,36.23 121.62,35.73 121.63,35.22C121.63,34.72 121.59,34.22 121.63,33.72C121.68,33.22 121.70,32.69 121.87,32.24C122.05,31.78 122.38,31.38 122.69,30.99C123.00,30.60 123.36,30.24 123.72,29.90C124.08,29.55 124.44,29.19 124.86,28.93C125.28,28.67 125.77,28.50 126.24,28.33C126.71,28.16 127.19,28.00 127.68,27.93C128.17,27.85 128.69,27.88 129.19,27.88C129.69,27.87 130.19,27.88 130.69,27.88C131.19,27.87 131.70,27.88 132.20,27.88C132.70,27.88 133.20,27.88 133.70,27.88C134.20,27.88 134.70,27.88 135.21,27.88C135.71,27.88 136.21,27.88 136.71,27.88C137.21,27.88 137.71,27.88 138.22,27.88C138.72,27.88 139.22,27.88 139.72,27.88C140.22,27.88 140.72,27.88 141.23,27.88C141.73,27.88 142.23,27.88 142.73,27.88C143.23,27.88 143.73,27.88 144.24,27.88C144.74,27.88 145.24,27.88 145.74,27.88C146.24,27.87 146.75,27.89 147.25,27.87C147.75,27.86 148.25,27.81 148.75,27.77C149.24,27.73 149.74,27.63 150.24,27.63C150.74,27.63 151.24,27.73 151.74,27.77C152.24,27.81 152.74,27.86 153.24,27.87C153.74,27.89 154.24,27.86 154.74,27.88C155.24,27.89 155.76,27.85 156.24,27.96C156.72,28.07 157.21,28.27 157.63,28.53C158.05,28.78 158.45,29.13 158.76,29.50C159.08,29.88 159.32,30.34 159.52,30.80C159.72,31.25 159.86,31.75 159.96,32.24C160.06,32.72 160.10,33.23 160.12,33.73C160.14,34.23 160.13,34.74 160.06,35.23C159.99,35.72 159.88,36.23 159.70,36.69C159.51,37.15 159.26,37.60 158.96,37.99C158.66,38.39 158.28,38.74 157.89,39.04C157.50,39.35 157.05,39.60 156.60,39.82C156.15,40.03 155.66,40.17 155.18,40.31C154.70,40.45 154.21,40.54 153.71,40.63C153.22,40.72 152.72,40.80 152.22,40.84C151.73,40.88 151.22,40.87 150.72,40.87C150.22,40.88 149.72,40.87 149.22,40.88C148.71,40.88 148.21,40.88 147.71,40.88C147.21,40.88 146.71,40.88 146.21,40.88C145.70,40.88 145.20,40.88 144.70,40.88C144.20,40.88 143.70,40.88 143.20,40.88C142.69,40.88 142.19,40.88 141.69,40.88C141.19,40.87 140.69,40.89 140.19,40.87C139.69,40.86 139.18,40.78 138.68,40.79C138.19,40.79 137.63,40.73 137.19,40.89C136.75,41.05 136.27,41.37 136.05,41.76C135.83,42.16 135.91,42.75 135.88,43.25C135.85,43.75 135.88,44.25 135.88,44.76C135.87,45.26 135.88,45.76 135.88,46.26C135.88,46.76 135.88,47.26 135.88,47.77C135.88,48.27 135.88,48.77 135.88,49.27C135.88,49.77 135.87,50.27 135.88,50.78C135.88,51.28 135.85,51.78 135.88,52.28C135.90,52.78 135.82,53.36 136.02,53.77C136.23,54.18 136.69,54.50 137.10,54.76C137.51,55.02 138.01,55.23 138.49,55.34C138.97,55.46 139.48,55.42 139.98,55.44C140.47,55.45 140.98,55.38 141.48,55.41C141.98,55.44 142.47,55.57 142.97,55.60C143.47,55.64 143.97,55.62 144.47,55.62C144.98,55.63 145.48,55.62 145.98,55.62C146.48,55.63 146.98,55.62 147.48,55.62C147.99,55.62 148.49,55.62 148.99,55.62C149.49,55.62 149.99,55.62 150.49,55.62C151.00,55.63 151.50,55.61 152.00,55.63C152.50,55.64 153.00,55.65 153.50,55.69C154.00,55.74 154.50,55.83 154.99,55.90C155.49,55.98 156.02,55.99 156.47,56.16C156.93,56.34 157.37,56.61 157.72,56.95C158.07,57.29 158.36,57.74 158.58,58.18C158.80,58.62 158.92,59.12 159.04,59.61C159.17,60.09 159.28,60.59 159.32,61.09C159.35,61.58 159.34,62.10 159.24,62.58C159.15,63.07 158.97,63.55 158.74,63.99C158.51,64.44 158.19,64.83 157.89,65.23C157.58,65.63 157.30,66.06 156.93,66.39C156.56,66.72 156.12,66.99 155.68,67.21C155.23,67.44 154.76,67.63 154.27,67.74C153.79,67.85 153.28,67.85 152.78,67.87C152.28,67.90 151.77,67.87 151.27,67.88C150.77,67.88 150.27,67.88 149.77,67.88C149.26,67.88 148.76,67.88 148.26,67.88C147.76,67.88 147.26,67.88 146.76,67.88C146.25,67.87 145.75,67.89 145.25,67.87C144.75,67.86 144.25,67.81 143.75,67.77C143.25,67.74 142.75,67.65 142.26,67.67C141.76,67.68 141.26,67.82 140.76,67.85C140.26,67.89 139.76,67.89 139.26,67.87C138.76,67.84 138.24,67.67 137.76,67.72C137.28,67.76 136.68,67.85 136.36,68.15C136.05,68.45 135.96,69.04 135.88,69.52C135.80,70.00 135.88,70.52 135.88,71.03C135.87,71.53 135.88,72.03 135.88,72.53C135.88,73.03 135.88,73.53 135.88,74.04C135.88,74.54 135.88,75.04 135.88,75.54C135.88,76.04 135.88,76.54 135.88,77.05C135.88,77.55 135.87,78.05 135.88,78.55C135.88,79.05 135.85,79.56 135.88,80.06C135.90,80.55 135.83,81.13 136.03,81.54C136.23,81.96 136.69,82.27 137.08,82.56C137.48,82.86 137.93,83.15 138.39,83.31C138.85,83.47 139.36,83.54 139.85,83.53C140.34,83.53 140.84,83.38 141.34,83.30C141.83,83.22 142.33,83.07 142.82,83.06C143.32,83.05 143.82,83.18 144.31,83.23C144.81,83.29 145.31,83.35 145.81,83.37C146.31,83.40 146.81,83.37 147.32,83.38C147.82,83.38 148.32,83.38 148.82,83.38C149.32,83.38 149.82,83.38 150.32,83.38C150.83,83.38 151.33,83.37 151.83,83.38C152.33,83.38 152.83,83.37 153.33,83.38C153.84,83.38 154.34,83.37 154.84,83.40C155.34,83.43 155.84,83.51 156.34,83.54C156.84,83.57 157.37,83.46 157.84,83.58C158.31,83.69 158.79,83.95 159.16,84.26C159.54,84.57 159.83,85.00 160.10,85.42C160.37,85.84 160.62,86.29 160.79,86.76C160.96,87.22 161.06,87.72 161.11,88.21C161.17,88.71 161.15,89.22 161.12,89.72C161.10,90.22 161.12,90.74 160.98,91.21C160.83,91.68 160.53,92.11 160.27,92.53C160.00,92.96 159.72,93.38 159.40,93.76C159.07,94.14 158.75,94.54 158.34,94.81C157.93,95.08 157.41,95.19 156.94,95.36C156.46,95.52 155.99,95.71 155.50,95.80ZM223.75,96.02C223.26,96.09 222.75,96.11 222.25,96.12C221.75,96.14 221.24,96.16 220.74,96.12C220.25,96.07 219.73,96.02 219.27,95.86C218.80,95.70 218.35,95.43 217.94,95.15C217.53,94.87 217.16,94.52 216.80,94.17C216.43,93.83 216.09,93.46 215.75,93.09C215.42,92.71 215.12,92.31 214.79,91.93C214.45,91.56 214.09,91.21 213.75,90.84C213.42,90.46 213.12,90.06 212.79,89.68C212.46,89.30 212.14,88.92 211.80,88.54C211.46,88.17 211.11,87.82 210.78,87.44C210.45,87.06 210.16,86.64 209.83,86.27C209.50,85.89 209.13,85.54 208.80,85.17C208.46,84.80 208.13,84.42 207.82,84.03C207.51,83.63 207.23,83.22 206.95,82.80C206.66,82.39 206.43,81.94 206.13,81.53C205.84,81.13 205.53,80.74 205.18,80.38C204.84,80.02 204.39,79.75 204.05,79.38C203.72,79.01 203.46,78.57 203.15,78.18C202.84,77.79 202.52,77.39 202.19,77.02C201.85,76.65 201.48,76.31 201.14,75.94C200.79,75.58 200.44,75.22 200.12,74.84C199.79,74.46 199.51,74.04 199.19,73.66C198.87,73.27 198.50,72.93 198.20,72.52C197.91,72.12 197.75,71.61 197.44,71.23C197.13,70.84 196.71,70.54 196.34,70.21C195.97,69.88 195.58,69.31 195.20,69.23C194.82,69.14 194.27,69.37 194.08,69.70C193.89,70.03 194.10,70.70 194.07,71.20C194.04,71.70 193.93,72.20 193.90,72.70C193.87,73.20 193.88,73.70 193.88,74.21C193.87,74.71 193.87,75.21 193.88,75.71C193.88,76.21 193.87,76.72 193.91,77.22C193.95,77.72 194.09,78.21 194.10,78.71C194.10,79.21 193.98,79.71 193.95,80.21C193.91,80.71 193.89,81.21 193.88,81.71C193.86,82.21 193.88,82.71 193.88,83.22C193.87,83.72 193.88,84.22 193.88,84.72C193.88,85.23 193.87,85.73 193.88,86.23C193.88,86.73 193.86,87.24 193.88,87.74C193.90,88.24 194.00,88.74 194.00,89.24C194.00,89.74 193.99,90.25 193.89,90.73C193.80,91.22 193.62,91.70 193.42,92.15C193.22,92.61 192.96,93.05 192.68,93.46C192.39,93.88 192.08,94.28 191.72,94.62C191.36,94.96 190.94,95.28 190.50,95.50C190.06,95.72 189.56,95.85 189.07,95.96C188.59,96.06 188.08,96.09 187.58,96.12C187.08,96.15 186.57,96.15 186.07,96.12C185.57,96.10 185.07,96.07 184.57,95.98C184.08,95.90 183.59,95.78 183.12,95.59C182.66,95.40 182.21,95.14 181.81,94.85C181.41,94.56 180.99,94.24 180.71,93.84C180.44,93.44 180.27,92.93 180.17,92.45C180.07,91.97 180.15,91.45 180.10,90.95C180.06,90.45 179.95,89.95 179.91,89.45C179.87,88.95 179.88,88.45 179.88,87.95C179.87,87.45 179.88,86.95 179.88,86.44C179.87,85.94 179.88,85.44 179.88,84.94C179.88,84.43 179.88,83.93 179.88,83.43C179.88,82.93 179.88,82.43 179.88,81.92C179.88,81.42 179.88,80.92 179.88,80.42C179.88,79.92 179.88,79.41 179.88,78.91C179.88,78.41 179.88,77.91 179.88,77.40C179.88,76.90 179.88,76.40 179.88,75.90C179.88,75.40 179.88,74.89 179.88,74.39C179.88,73.89 179.88,73.39 179.88,72.89C179.88,72.38 179.88,71.88 179.88,71.38C179.88,70.88 179.88,70.37 179.88,69.87C179.88,69.37 179.88,68.87 179.88,68.37C179.88,67.86 179.88,67.36 179.88,66.86C179.88,66.36 179.88,65.86 179.88,65.35C179.88,64.85 179.88,64.35 179.88,63.85C179.88,63.35 179.88,62.84 179.88,62.34C179.88,61.84 179.88,61.34 179.88,60.83C179.88,60.33 179.88,59.83 179.88,59.33C179.88,58.83 179.88,58.32 179.88,57.82C179.88,57.32 179.88,56.82 179.88,56.32C179.88,55.81 179.88,55.31 179.88,54.81C179.88,54.31 179.88,53.80 179.88,53.30C179.88,52.80 179.88,52.30 179.88,51.80C179.88,51.29 179.88,50.79 179.88,50.29C179.88,49.79 179.88,49.29 179.88,48.78C179.88,48.28 179.88,47.78 179.88,47.28C179.88,46.77 179.88,46.27 179.88,45.77C179.88,45.27 179.88,44.77 179.88,44.26C179.88,43.76 179.88,43.26 179.88,42.76C179.88,42.26 179.88,41.75 179.88,41.25C179.88,40.75 179.88,40.25 179.88,39.75C179.88,39.24 179.88,38.74 179.88,38.24C179.88,37.74 179.88,37.23 179.88,36.73C179.88,36.23 179.87,35.73 179.88,35.23C179.88,34.72 179.86,34.22 179.88,33.72C179.89,33.22 179.84,32.69 179.98,32.22C180.11,31.75 180.43,31.33 180.70,30.91C180.97,30.49 181.26,30.07 181.59,29.70C181.92,29.33 182.26,28.93 182.67,28.67C183.08,28.40 183.59,28.25 184.07,28.11C184.55,27.98 185.05,27.92 185.55,27.88C186.05,27.84 186.56,27.88 187.06,27.88C187.56,27.87 188.06,27.88 188.56,27.88C189.07,27.88 189.57,27.88 190.07,27.88C190.57,27.88 191.07,27.88 191.58,27.88C192.08,27.88 192.58,27.88 193.08,27.88C193.59,27.88 194.09,27.88 194.59,27.88C195.09,27.88 195.59,27.88 196.10,27.88C196.60,27.88 197.10,27.88 197.60,27.88C198.10,27.88 198.61,27.88 199.11,27.88C199.61,27.88 200.11,27.88 200.61,27.88C201.12,27.88 201.62,27.88 202.12,27.88C202.62,27.88 203.13,27.88 203.63,27.88C204.13,27.88 204.63,27.88 205.13,27.88C205.64,27.88 206.14,27.88 206.64,27.88C207.14,27.88 207.64,27.87 208.15,27.88C208.65,27.88 209.15,27.85 209.65,27.88C210.15,27.91 210.65,27.98 211.15,28.05C211.64,28.12 212.14,28.20 212.63,28.30C213.13,28.40 213.62,28.49 214.10,28.64C214.57,28.80 215.01,29.07 215.48,29.24C215.95,29.41 216.45,29.50 216.93,29.65C217.41,29.81 217.88,29.96 218.34,30.17C218.80,30.37 219.24,30.62 219.68,30.86C220.12,31.09 220.57,31.33 221.00,31.58C221.43,31.84 221.85,32.10 222.26,32.40C222.66,32.70 223.05,33.02 223.41,33.36C223.78,33.71 224.12,34.08 224.43,34.47C224.74,34.86 224.99,35.30 225.27,35.72C225.55,36.14 225.84,36.55 226.10,36.98C226.36,37.41 226.60,37.85 226.82,38.30C227.05,38.75 227.26,39.20 227.43,39.67C227.60,40.14 227.72,40.63 227.85,41.12C227.97,41.60 228.06,42.10 228.19,42.59C228.31,43.07 228.51,43.54 228.63,44.03C228.74,44.51 228.81,45.01 228.89,45.51C228.96,46.00 229.05,46.50 229.09,47.00C229.13,47.50 229.12,48.00 229.12,48.51C229.13,49.01 229.15,49.51 229.12,50.01C229.08,50.51 229.02,51.01 228.93,51.51C228.84,52.00 228.71,52.48 228.57,52.96C228.42,53.44 228.22,53.90 228.07,54.38C227.92,54.86 227.86,55.37 227.69,55.84C227.52,56.31 227.28,56.76 227.05,57.20C226.81,57.64 226.56,58.08 226.27,58.49C225.99,58.90 225.66,59.29 225.34,59.67C225.01,60.05 224.69,60.44 224.33,60.79C223.98,61.15 223.60,61.47 223.22,61.80C222.84,62.13 222.46,62.46 222.06,62.77C221.66,63.07 221.25,63.36 220.83,63.63C220.40,63.90 219.97,64.15 219.53,64.40C219.09,64.64 218.65,64.87 218.19,65.09C217.74,65.31 217.29,65.54 216.82,65.71C216.35,65.88 215.84,65.94 215.37,66.11C214.90,66.27 214.45,66.51 213.98,66.67C213.50,66.84 212.89,66.87 212.54,67.11C212.18,67.35 211.80,67.75 211.83,68.12C211.86,68.49 212.41,68.93 212.72,69.33C213.03,69.73 213.34,70.12 213.67,70.50C213.99,70.88 214.32,71.26 214.67,71.61C215.03,71.95 215.46,72.23 215.81,72.58C216.16,72.94 216.44,73.36 216.76,73.75C217.09,74.13 217.41,74.51 217.75,74.88C218.09,75.25 218.45,75.59 218.79,75.95C219.14,76.31 219.49,76.67 219.84,77.02C220.20,77.37 220.56,77.71 220.94,78.04C221.31,78.37 221.73,78.65 222.11,78.99C222.48,79.32 222.84,79.67 223.20,80.02C223.55,80.38 223.90,80.75 224.22,81.13C224.55,81.51 224.82,81.94 225.15,82.31C225.49,82.68 225.88,83.00 226.22,83.37C226.56,83.74 226.87,84.13 227.19,84.52C227.51,84.91 227.86,85.28 228.15,85.68C228.44,86.09 228.69,86.53 228.92,86.98C229.15,87.42 229.40,87.88 229.50,88.36C229.61,88.84 229.60,89.37 229.54,89.86C229.47,90.35 229.31,90.84 229.13,91.30C228.94,91.77 228.68,92.20 228.42,92.63C228.16,93.06 227.89,93.49 227.58,93.88C227.27,94.27 226.94,94.66 226.54,94.96C226.15,95.26 225.68,95.48 225.21,95.66C224.75,95.84 224.24,95.94 223.75,96.02ZM346.75,95.76C346.26,95.85 345.75,95.86 345.25,95.87C344.75,95.89 344.25,95.87 343.74,95.88C343.24,95.88 342.74,95.88 342.24,95.88C341.74,95.88 341.23,95.88 340.73,95.88C340.23,95.88 339.73,95.88 339.22,95.88C338.72,95.88 338.22,95.88 337.72,95.88C337.22,95.88 336.71,95.88 336.21,95.88C335.71,95.88 335.21,95.88 334.70,95.88C334.20,95.88 333.70,95.88 333.20,95.88C332.70,95.88 332.19,95.88 331.69,95.88C331.19,95.88 330.69,95.88 330.19,95.88C329.68,95.88 329.18,95.88 328.68,95.88C328.18,95.88 327.67,95.88 327.17,95.88C326.67,95.88 326.17,95.88 325.67,95.88C325.16,95.88 324.66,95.88 324.16,95.88C323.66,95.88 323.16,95.88 322.65,95.88C322.15,95.88 321.65,95.88 321.15,95.88C320.64,95.87 320.14,95.90 319.64,95.87C319.14,95.85 318.63,95.83 318.15,95.72C317.66,95.61 317.19,95.41 316.73,95.21C316.27,95.01 315.79,94.82 315.40,94.52C315.00,94.22 314.62,93.85 314.36,93.43C314.10,93.02 314.00,92.51 313.85,92.04C313.70,91.56 313.61,91.06 313.48,90.58C313.36,90.09 313.20,89.61 313.10,89.12C313.00,88.63 312.93,88.13 312.89,87.63C312.85,87.13 312.88,86.63 312.88,86.13C312.87,85.62 312.88,85.12 312.88,84.62C312.87,84.12 312.88,83.61 312.88,83.11C312.87,82.61 312.90,82.11 312.87,81.61C312.84,81.11 312.75,80.61 312.71,80.11C312.67,79.61 312.64,79.11 312.63,78.61C312.61,78.11 312.63,77.60 312.62,77.10C312.62,76.60 312.62,76.10 312.62,75.59C312.62,75.09 312.62,74.59 312.62,74.09C312.62,73.59 312.62,73.08 312.62,72.58C312.62,72.08 312.62,71.58 312.62,71.07C312.62,70.57 312.62,70.07 312.62,69.57C312.62,69.07 312.62,68.56 312.62,68.06C312.62,67.56 312.62,67.06 312.62,66.56C312.62,66.05 312.62,65.55 312.62,65.05C312.62,64.55 312.62,64.04 312.62,63.54C312.62,63.04 312.62,62.54 312.62,62.04C312.62,61.53 312.62,61.03 312.62,60.53C312.62,60.03 312.62,59.53 312.62,59.02C312.62,58.52 312.62,58.02 312.62,57.52C312.62,57.01 312.62,56.51 312.62,56.01C312.62,55.51 312.62,55.01 312.62,54.50C312.62,54.00 312.62,53.50 312.62,53.00C312.62,52.49 312.62,51.99 312.62,51.49C312.63,50.99 312.61,50.49 312.63,49.98C312.64,49.48 312.68,48.98 312.73,48.48C312.78,47.98 312.88,47.49 312.94,46.99C313.00,46.49 313.09,46.00 313.12,45.50C313.15,45.00 313.12,44.49 313.12,43.99C313.13,43.49 313.13,42.99 313.12,42.48C313.12,41.98 313.13,41.48 313.12,40.98C313.12,40.48 313.14,39.97 313.10,39.47C313.07,38.97 312.94,38.47 312.93,37.98C312.93,37.48 313.07,36.98 313.09,36.48C313.11,35.98 313.07,35.48 313.05,34.98C313.04,34.48 312.89,33.96 312.98,33.48C313.06,33.00 313.30,32.53 313.54,32.09C313.78,31.66 314.13,31.27 314.42,30.87C314.71,30.46 314.95,30.00 315.29,29.64C315.63,29.28 316.05,28.98 316.47,28.72C316.90,28.46 317.36,28.22 317.83,28.08C318.31,27.94 318.82,27.91 319.32,27.88C319.82,27.84 320.32,27.88 320.83,27.88C321.33,27.87 321.83,27.88 322.33,27.88C322.83,27.88 323.34,27.88 323.84,27.88C324.34,27.88 324.84,27.88 325.35,27.88C325.85,27.88 326.35,27.88 326.85,27.88C327.35,27.88 327.86,27.88 328.36,27.88C328.86,27.88 329.36,27.88 329.86,27.88C330.37,27.88 330.87,27.88 331.37,27.88C331.87,27.88 332.38,27.88 332.88,27.88C333.38,27.88 333.88,27.88 334.38,27.88C334.89,27.88 335.39,27.88 335.89,27.88C336.39,27.88 336.89,27.88 337.40,27.88C337.90,27.88 338.40,27.88 338.90,27.88C339.41,27.88 339.91,27.88 340.41,27.88C340.91,27.88 341.41,27.88 341.92,27.88C342.42,27.88 342.92,27.88 343.42,27.88C343.93,27.88 344.43,27.87 344.93,27.88C345.43,27.88 345.94,27.84 346.44,27.88C346.93,27.91 347.45,27.93 347.92,28.08C348.39,28.24 348.85,28.50 349.24,28.80C349.62,29.11 349.94,29.52 350.23,29.92C350.52,30.32 350.77,30.77 350.98,31.23C351.19,31.68 351.38,32.15 351.49,32.64C351.59,33.12 351.62,33.64 351.62,34.13C351.62,34.63 351.58,35.15 351.47,35.63C351.35,36.11 351.15,36.59 350.91,37.03C350.67,37.46 350.36,37.87 350.03,38.23C349.69,38.60 349.29,38.93 348.89,39.22C348.49,39.51 348.06,39.78 347.60,39.98C347.15,40.18 346.64,40.27 346.16,40.40C345.67,40.53 345.19,40.69 344.70,40.77C344.20,40.85 343.70,40.86 343.20,40.87C342.70,40.89 342.19,40.87 341.69,40.88C341.19,40.88 340.69,40.88 340.18,40.88C339.68,40.88 339.18,40.88 338.68,40.88C338.17,40.88 337.67,40.88 337.17,40.88C336.67,40.88 336.17,40.88 335.66,40.88C335.16,40.88 334.66,40.88 334.16,40.88C333.66,40.87 333.15,40.89 332.65,40.87C332.15,40.86 331.65,40.81 331.15,40.79C330.65,40.77 330.14,40.71 329.65,40.75C329.15,40.80 328.55,40.80 328.18,41.05C327.80,41.30 327.54,41.80 327.41,42.25C327.27,42.70 327.38,43.25 327.37,43.76C327.36,44.26 327.34,44.76 327.34,45.26C327.34,45.76 327.37,46.27 327.37,46.77C327.38,47.27 327.37,47.77 327.38,48.28C327.38,48.78 327.38,49.28 327.37,49.78C327.37,50.28 327.38,50.79 327.37,51.29C327.35,51.79 327.20,52.31 327.27,52.79C327.35,53.27 327.50,53.80 327.79,54.18C328.08,54.55 328.58,54.81 329.02,55.04C329.46,55.27 329.94,55.48 330.42,55.56C330.90,55.65 331.42,55.55 331.92,55.53C332.42,55.51 332.92,55.42 333.42,55.44C333.92,55.45 334.41,55.57 334.91,55.61C335.41,55.66 335.92,55.68 336.42,55.72C336.91,55.76 337.41,55.87 337.91,55.86C338.41,55.86 338.91,55.75 339.41,55.71C339.91,55.67 340.41,55.64 340.91,55.63C341.41,55.61 341.92,55.62 342.42,55.62C342.92,55.63 343.42,55.61 343.92,55.63C344.43,55.64 344.93,55.66 345.43,55.72C345.92,55.78 346.43,55.85 346.91,55.97C347.40,56.09 347.92,56.19 348.33,56.45C348.74,56.72 349.07,57.14 349.36,57.54C349.65,57.94 349.88,58.41 350.06,58.87C350.24,59.33 350.34,59.83 350.44,60.33C350.53,60.82 350.63,61.32 350.61,61.82C350.60,62.31 350.52,62.83 350.35,63.29C350.18,63.75 349.85,64.16 349.58,64.58C349.31,65.01 349.07,65.46 348.74,65.83C348.41,66.20 348.03,66.55 347.62,66.83C347.21,67.11 346.74,67.33 346.28,67.50C345.81,67.67 345.31,67.79 344.82,67.85C344.32,67.91 343.81,67.89 343.31,67.87C342.81,67.86 342.31,67.81 341.81,67.78C341.31,67.74 340.81,67.65 340.31,67.66C339.81,67.68 339.32,67.82 338.82,67.85C338.32,67.89 337.81,67.88 337.31,67.87C336.81,67.87 336.31,67.87 335.81,67.84C335.30,67.81 334.81,67.71 334.31,67.71C333.81,67.71 333.31,67.84 332.81,67.86C332.31,67.89 331.80,67.89 331.30,67.87C330.80,67.84 330.30,67.70 329.81,67.71C329.31,67.72 328.75,67.72 328.34,67.94C327.93,68.16 327.54,68.59 327.34,69.01C327.14,69.44 327.14,70.00 327.14,70.50C327.13,70.99 327.27,71.49 327.31,71.99C327.35,72.49 327.36,72.99 327.37,73.50C327.39,74.00 327.37,74.50 327.38,75.00C327.38,75.50 327.38,76.01 327.38,76.51C327.37,77.01 327.39,77.51 327.37,78.01C327.36,78.52 327.32,79.02 327.31,79.52C327.29,80.02 327.14,80.56 327.27,81.01C327.40,81.47 327.71,81.95 328.07,82.25C328.44,82.55 329.01,82.61 329.47,82.81C329.92,83.02 330.34,83.37 330.81,83.48C331.29,83.58 331.81,83.51 332.30,83.46C332.80,83.40 333.29,83.24 333.78,83.15C334.27,83.06 334.77,82.92 335.26,82.91C335.76,82.90 336.26,83.05 336.76,83.09C337.26,83.13 337.76,83.10 338.26,83.15C338.76,83.19 339.26,83.30 339.76,83.34C340.26,83.38 340.76,83.37 341.26,83.37C341.76,83.38 342.27,83.38 342.77,83.37C343.27,83.37 343.77,83.35 344.27,83.35C344.78,83.35 345.28,83.34 345.78,83.37C346.28,83.41 346.78,83.50 347.27,83.56C347.77,83.63 348.28,83.67 348.76,83.78C349.25,83.90 349.75,84.03 350.18,84.28C350.60,84.53 351.02,84.87 351.31,85.26C351.60,85.65 351.79,86.15 351.93,86.62C352.06,87.10 352.09,87.61 352.12,88.11C352.15,88.61 352.13,89.12 352.12,89.62C352.12,90.12 352.15,90.64 352.07,91.12C351.98,91.61 351.83,92.11 351.60,92.55C351.38,92.99 351.08,93.42 350.74,93.78C350.40,94.14 349.98,94.43 349.55,94.69C349.13,94.94 348.66,95.14 348.19,95.32C347.72,95.50 347.24,95.67 346.75,95.76ZM395.00,96.02C394.51,96.09 394.00,96.11 393.50,96.12C393.00,96.14 392.49,96.13 391.99,96.12C391.49,96.12 390.98,96.15 390.49,96.08C389.99,96.02 389.47,95.94 389.02,95.74C388.57,95.54 388.16,95.23 387.79,94.90C387.41,94.57 387.05,94.19 386.79,93.78C386.53,93.36 386.36,92.87 386.22,92.39C386.09,91.91 386.02,91.40 385.97,90.90C385.91,90.40 385.89,89.90 385.88,89.40C385.86,88.90 385.88,88.40 385.88,87.89C385.87,87.39 385.87,86.89 385.88,86.39C385.88,85.88 385.85,85.38 385.88,84.88C385.91,84.38 386.00,83.88 386.04,83.38C386.08,82.88 386.13,82.38 386.11,81.88C386.09,81.38 385.97,80.89 385.93,80.39C385.89,79.89 385.88,79.38 385.88,78.88C385.87,78.38 385.88,77.88 385.88,77.37C385.87,76.87 385.88,76.37 385.88,75.87C385.88,75.37 385.88,74.86 385.88,74.36C385.88,73.86 385.88,73.36 385.88,72.85C385.88,72.35 385.88,71.85 385.88,71.35C385.88,70.85 385.88,70.34 385.88,69.84C385.88,69.34 385.88,68.84 385.88,68.33C385.87,67.83 385.88,67.33 385.87,66.83C385.87,66.33 385.93,65.80 385.82,65.32C385.71,64.85 385.44,64.40 385.21,63.96C384.98,63.52 384.68,63.11 384.43,62.67C384.18,62.24 383.99,61.76 383.73,61.34C383.46,60.92 383.16,60.52 382.85,60.13C382.54,59.74 382.16,59.40 381.85,59.00C381.55,58.60 381.30,58.16 381.02,57.74C380.74,57.33 380.49,56.89 380.19,56.49C379.89,56.09 379.54,55.72 379.22,55.33C378.90,54.95 378.57,54.57 378.27,54.17C377.96,53.77 377.69,53.35 377.40,52.94C377.11,52.53 376.82,52.12 376.53,51.71C376.24,51.30 375.95,50.89 375.66,50.48C375.36,50.08 375.06,49.68 374.76,49.27C374.47,48.86 374.19,48.44 373.89,48.04C373.59,47.64 373.26,47.27 372.96,46.86C372.65,46.46 372.37,46.05 372.08,45.64C371.79,45.23 371.50,44.82 371.20,44.41C370.90,44.01 370.58,43.63 370.28,43.22C369.99,42.82 369.73,42.38 369.43,41.98C369.13,41.58 368.79,41.20 368.48,40.81C368.16,40.42 367.83,40.04 367.54,39.63C367.25,39.23 366.97,38.80 366.75,38.35C366.54,37.90 366.40,37.41 366.25,36.93C366.11,36.45 366.00,35.96 365.90,35.47C365.81,34.98 365.71,34.47 365.69,33.98C365.67,33.48 365.62,32.92 365.80,32.49C365.99,32.06 366.49,31.77 366.79,31.38C367.09,31.00 367.40,30.61 367.62,30.17C367.84,29.73 367.82,29.11 368.11,28.75C368.41,28.39 368.93,28.16 369.39,28.02C369.85,27.87 370.38,27.90 370.88,27.88C371.38,27.85 371.89,27.88 372.39,27.88C372.89,27.87 373.40,27.87 373.90,27.88C374.40,27.88 374.91,27.83 375.40,27.89C375.90,27.95 376.42,28.02 376.86,28.23C377.30,28.45 377.68,28.82 378.03,29.17C378.39,29.52 378.67,29.94 378.98,30.34C379.28,30.74 379.58,31.14 379.86,31.56C380.14,31.97 380.41,32.40 380.68,32.82C380.95,33.24 381.20,33.68 381.49,34.09C381.78,34.50 382.09,34.89 382.41,35.28C382.73,35.66 383.12,36.00 383.42,36.40C383.72,36.80 383.93,37.26 384.20,37.68C384.47,38.10 384.76,38.52 385.04,38.94C385.32,39.35 385.61,39.76 385.91,40.17C386.20,40.58 386.50,40.98 386.79,41.38C387.09,41.79 387.40,42.19 387.70,42.59C388.00,42.99 388.32,43.38 388.61,43.79C388.90,44.20 389.17,44.62 389.44,45.04C389.72,45.46 389.98,45.89 390.26,46.31C390.54,46.72 390.80,47.16 391.13,47.54C391.46,47.91 391.81,48.43 392.23,48.56C392.65,48.69 393.19,48.49 393.65,48.34C394.11,48.19 394.63,47.98 395.00,47.67C395.36,47.35 395.57,46.86 395.86,46.45C396.14,46.04 396.39,45.60 396.69,45.21C397.00,44.81 397.39,44.48 397.68,44.07C397.97,43.67 398.16,43.19 398.43,42.77C398.70,42.35 399.03,41.96 399.33,41.56C399.62,41.15 399.91,40.74 400.19,40.33C400.48,39.91 400.79,39.51 401.05,39.09C401.32,38.66 401.54,38.21 401.80,37.78C402.06,37.35 402.31,36.91 402.64,36.53C402.97,36.16 403.41,35.90 403.78,35.55C404.14,35.20 404.51,34.85 404.80,34.45C405.09,34.04 405.27,33.56 405.53,33.13C405.78,32.70 406.01,32.25 406.31,31.85C406.62,31.46 407.04,31.15 407.34,30.75C407.64,30.35 407.83,29.87 408.13,29.47C408.43,29.07 408.73,28.62 409.13,28.36C409.53,28.10 410.05,27.98 410.54,27.90C411.03,27.81 411.55,27.87 412.05,27.88C412.55,27.88 413.05,27.92 413.55,27.95C414.05,27.98 414.55,28.07 415.05,28.07C415.55,28.07 416.07,27.87 416.55,27.95C417.02,28.03 417.51,28.28 417.89,28.57C418.27,28.87 418.57,29.32 418.85,29.72C419.14,30.13 419.47,30.56 419.62,31.02C419.77,31.48 419.71,32.01 419.76,32.51C419.81,33.01 419.89,33.51 419.90,34.01C419.92,34.51 419.93,35.02 419.86,35.51C419.78,36.00 419.64,36.49 419.45,36.95C419.26,37.41 418.99,37.85 418.73,38.28C418.48,38.71 418.19,39.12 417.90,39.53C417.61,39.94 417.29,40.33 416.99,40.73C416.69,41.14 416.40,41.54 416.11,41.95C415.82,42.37 415.55,42.79 415.26,43.20C414.96,43.60 414.63,43.98 414.32,44.38C414.02,44.78 413.72,45.18 413.43,45.59C413.15,46.01 412.91,46.46 412.62,46.86C412.32,47.26 411.95,47.61 411.64,48.01C411.33,48.40 411.07,48.83 410.76,49.23C410.46,49.63 410.12,50.00 409.82,50.41C409.52,50.81 409.25,51.23 408.95,51.63C408.66,52.04 408.33,52.42 408.04,52.83C407.76,53.25 407.53,53.70 407.25,54.11C406.98,54.53 406.68,54.94 406.38,55.35C406.09,55.75 405.79,56.15 405.49,56.56C405.19,56.96 404.87,57.35 404.59,57.77C404.30,58.18 404.05,58.61 403.76,59.02C403.47,59.43 403.17,59.84 402.87,60.23C402.56,60.63 402.20,60.99 401.91,61.40C401.62,61.80 401.40,62.26 401.12,62.68C400.84,63.09 400.44,63.45 400.23,63.89C400.03,64.34 399.95,64.85 399.89,65.35C399.83,65.84 399.88,66.35 399.88,66.85C399.87,67.36 399.88,67.86 399.88,68.36C399.87,68.86 399.88,69.37 399.88,69.87C399.88,70.37 399.88,70.87 399.88,71.37C399.88,71.88 399.88,72.38 399.88,72.88C399.88,73.38 399.88,73.89 399.88,74.39C399.88,74.89 399.88,75.39 399.88,75.89C399.88,76.40 399.88,76.90 399.88,77.40C399.88,77.90 399.88,78.41 399.88,78.91C399.88,79.41 399.88,79.91 399.88,80.41C399.88,80.92 399.88,81.42 399.88,81.92C399.88,82.42 399.88,82.93 399.88,83.43C399.88,83.93 399.88,84.43 399.88,84.94C399.88,85.44 399.88,85.94 399.88,86.44C399.88,86.94 399.88,87.45 399.88,87.95C399.87,88.45 399.88,88.95 399.87,89.46C399.87,89.96 399.92,90.47 399.84,90.96C399.76,91.45 399.60,91.94 399.40,92.39C399.21,92.85 398.96,93.30 398.68,93.71C398.40,94.13 398.09,94.54 397.72,94.87C397.35,95.20 396.92,95.50 396.47,95.69C396.02,95.89 395.49,95.95 395.00,96.02ZM71.82,54.75C72.32,54.72 72.82,54.57 73.33,54.51C73.83,54.45 74.34,54.42 74.85,54.36C75.36,54.31 75.86,54.22 76.37,54.18C76.87,54.14 77.40,54.20 77.89,54.12C78.39,54.04 78.91,53.94 79.34,53.70C79.77,53.46 80.10,53.03 80.47,52.68C80.84,52.33 81.26,52.01 81.54,51.60C81.83,51.19 81.96,50.67 82.18,50.21C82.40,49.75 82.70,49.32 82.85,48.84C83.00,48.36 83.12,47.83 83.08,47.34C83.04,46.85 82.82,46.36 82.63,45.89C82.44,45.42 82.19,44.97 81.95,44.52C81.71,44.07 81.49,43.61 81.20,43.19C80.91,42.78 80.57,42.38 80.20,42.04C79.83,41.69 79.44,41.36 79.00,41.12C78.56,40.88 78.05,40.75 77.57,40.59C77.09,40.43 76.60,40.25 76.11,40.16C75.61,40.06 75.10,40.04 74.59,39.99C74.08,39.95 73.58,39.90 73.07,39.88C72.56,39.86 72.05,39.88 71.54,39.88C71.03,39.87 70.52,39.87 70.01,39.88C69.50,39.88 68.96,39.79 68.48,39.90C68.00,40.01 67.42,40.18 67.15,40.54C66.88,40.89 66.92,41.52 66.88,42.02C66.83,42.52 66.88,43.04 66.88,43.55C66.87,44.06 66.88,44.57 66.88,45.08C66.88,45.58 66.88,46.09 66.88,46.60C66.87,47.11 66.88,47.62 66.87,48.13C66.87,48.64 66.89,49.15 66.86,49.66C66.83,50.17 66.70,50.67 66.67,51.18C66.64,51.68 66.58,52.22 66.70,52.70C66.81,53.18 66.99,53.77 67.34,54.05C67.69,54.33 68.31,54.29 68.80,54.40C69.29,54.50 69.80,54.61 70.30,54.66C70.81,54.72 71.32,54.78 71.82,54.75ZM208.50,57.75C208.97,57.59 209.38,57.24 209.78,56.93C210.17,56.62 210.53,56.24 210.87,55.87C211.22,55.50 211.55,55.11 211.86,54.71C212.18,54.31 212.48,53.90 212.74,53.47C213.01,53.03 213.29,52.60 213.46,52.13C213.63,51.66 213.72,51.14 213.79,50.64C213.85,50.14 213.88,49.62 213.87,49.12C213.85,48.61 213.78,48.10 213.69,47.60C213.60,47.11 213.49,46.60 213.32,46.12C213.16,45.65 212.94,45.18 212.69,44.74C212.44,44.30 212.15,43.87 211.81,43.50C211.48,43.12 211.10,42.76 210.68,42.48C210.27,42.20 209.78,42.02 209.32,41.80C208.86,41.58 208.41,41.33 207.93,41.18C207.45,41.03 206.93,40.98 206.43,40.90C205.93,40.83 205.42,40.76 204.92,40.72C204.41,40.67 203.90,40.62 203.40,40.63C202.89,40.64 202.39,40.77 201.88,40.77C201.37,40.78 200.87,40.70 200.36,40.68C199.86,40.65 199.35,40.63 198.84,40.63C198.33,40.62 197.82,40.61 197.31,40.63C196.81,40.64 196.28,40.62 195.79,40.72C195.31,40.82 194.71,40.92 194.40,41.24C194.08,41.56 193.99,42.17 193.90,42.66C193.82,43.15 193.87,43.67 193.89,44.18C193.91,44.69 194.04,45.19 194.05,45.70C194.05,46.20 193.93,46.71 193.90,47.21C193.87,47.72 193.88,48.23 193.88,48.74C193.87,49.25 193.88,49.76 193.88,50.27C193.87,50.77 193.88,51.28 193.88,51.79C193.88,52.30 193.87,52.81 193.88,53.32C193.88,53.82 193.86,54.33 193.88,54.84C193.89,55.35 193.79,55.92 193.95,56.36C194.11,56.81 194.44,57.27 194.84,57.50C195.24,57.74 195.84,57.74 196.34,57.78C196.84,57.82 197.35,57.78 197.86,57.75C198.36,57.73 198.87,57.63 199.38,57.64C199.88,57.65 200.38,57.79 200.89,57.82C201.40,57.86 201.90,57.87 202.41,57.87C202.92,57.88 203.43,57.87 203.94,57.88C204.45,57.88 204.96,57.88 205.46,57.88C205.97,57.87 206.48,57.90 206.99,57.87C207.50,57.85 208.04,57.91 208.50,57.75ZM72.12,84.00C72.62,83.97 73.12,83.90 73.63,83.88C74.13,83.86 74.63,83.88 75.14,83.88C75.64,83.87 76.14,83.88 76.65,83.88C77.15,83.87 77.65,83.88 78.15,83.87C78.66,83.86 79.17,83.89 79.66,83.82C80.16,83.74 80.66,83.62 81.12,83.43C81.58,83.25 81.99,82.93 82.43,82.70C82.88,82.47 83.34,82.27 83.80,82.06C84.26,81.85 84.75,81.70 85.18,81.44C85.60,81.18 86.00,80.86 86.36,80.51C86.72,80.17 87.11,79.80 87.34,79.37C87.57,78.94 87.65,78.42 87.74,77.92C87.83,77.43 87.85,76.92 87.87,76.42C87.89,75.92 87.90,75.41 87.87,74.91C87.84,74.41 87.80,73.90 87.69,73.42C87.58,72.93 87.42,72.44 87.20,72.00C86.98,71.55 86.67,71.13 86.35,70.75C86.03,70.37 85.64,70.04 85.26,69.71C84.88,69.39 84.48,69.07 84.07,68.79C83.66,68.50 83.24,68.20 82.78,68.01C82.32,67.82 81.81,67.74 81.32,67.64C80.83,67.54 80.33,67.46 79.83,67.40C79.34,67.35 78.84,67.32 78.34,67.31C77.84,67.30 77.33,67.38 76.83,67.36C76.33,67.34 75.83,67.20 75.33,67.17C74.83,67.15 74.33,67.19 73.83,67.22C73.33,67.25 72.83,67.34 72.33,67.34C71.83,67.33 71.33,67.18 70.83,67.18C70.33,67.18 69.83,67.29 69.33,67.34C68.83,67.39 68.23,67.26 67.83,67.46C67.43,67.66 67.07,68.13 66.91,68.56C66.75,69.00 66.86,69.56 66.86,70.07C66.85,70.57 66.87,71.07 66.87,71.58C66.88,72.08 66.87,72.58 66.88,73.09C66.88,73.59 66.88,74.09 66.88,74.60C66.88,75.10 66.88,75.60 66.88,76.10C66.88,76.61 66.88,77.11 66.88,77.61C66.87,78.12 66.88,78.62 66.87,79.12C66.87,79.63 66.87,80.13 66.86,80.63C66.85,81.14 66.68,81.70 66.82,82.14C66.97,82.58 67.35,83.00 67.73,83.28C68.12,83.56 68.65,83.69 69.13,83.82C69.61,83.96 70.12,84.04 70.62,84.07C71.12,84.10 71.62,84.03 72.12,84.00Z"/>
  <path fill="#FFFFFF" fill-rule="evenodd" d="M515.75,12.25H517.75V111.00H515.75ZM712.25,70.04L710.00,69.85L708.75,69.30L706.96,66.75L706.67,64.25L706.97,56.25L708.13,54.50L710.25,53.21L712.50,52.90L714.75,53.79L715.75,53.67L716.06,53.25L715.88,49.00L716.08,48.00L716.75,47.46L719.00,47.23L719.86,47.75L720.35,48.75L720.29,68.75L719.25,69.85L717.25,69.85L715.50,69.42ZM741.25,70.05L736.75,69.85L734.75,69.03L733.20,67.75L732.17,64.75L732.45,64.25L733.25,63.90L736.50,64.23L737.44,66.50L739.50,67.12L741.25,67.10L742.12,66.75L743.30,65.00L743.52,64.25L743.35,62.50L742.56,61.00L734.50,57.80L733.14,56.50L732.70,55.50L732.65,52.25L733.39,50.00L735.25,48.32L738.75,47.15L741.75,47.15L745.00,48.20L746.67,49.75L747.60,52.00L747.50,52.53L746.75,53.04L744.00,53.04L743.31,52.50L742.25,50.71L740.00,50.05L738.50,50.44L737.22,51.50L736.90,53.75L737.64,55.50L745.50,58.45L747.05,59.75L747.85,62.00L747.85,65.00L747.54,66.50L746.86,67.75L744.25,69.54ZM776.00,69.79L774.00,69.80L771.00,68.55L769.95,67.25L769.40,65.75L769.40,48.50L770.00,47.64L771.00,47.21L772.84,47.50L773.60,48.50L773.62,63.25L773.40,64.50L774.50,66.60L776.52,67.50L776.83,69.00ZM574.75,69.79L564.00,69.87L562.83,69.25L562.63,53.25L562.90,48.25L563.50,47.57L574.25,47.38L575.28,48.00L575.35,49.50L575.00,50.02L573.75,50.37L568.25,50.40L567.45,51.00L567.13,52.00L567.15,56.00L567.50,56.71L569.25,57.10L573.75,57.23L574.27,59.00L574.10,59.50L573.50,59.85L568.75,59.88L567.69,60.25L567.15,61.25L567.21,66.00L568.00,66.85L573.75,66.88L575.25,67.23L575.51,67.75L575.33,69.25ZM619.25,50.79L616.75,50.85L615.47,50.50L615.17,50.00L615.50,47.97L616.50,47.40L619.00,47.40L619.50,47.65L620.05,48.75L620.10,49.75ZM814.00,50.78L811.00,50.85L810.27,50.50L810.05,50.00L810.25,47.97L811.50,47.38L813.50,47.40L814.25,47.71L814.79,48.50L814.85,49.75ZM806.00,69.79L804.25,69.85L801.25,68.78L800.14,67.75L799.40,66.50L799.13,64.00L799.35,57.75L798.75,56.20L797.25,55.67L796.88,54.75L797.25,54.08L798.50,53.78L799.05,53.25L799.27,52.75L799.15,50.00L800.00,48.96L802.25,48.88L803.00,49.15L803.35,49.75L803.50,53.04L804.50,53.79L806.25,53.98L806.62,54.50L806.65,55.25L806.25,55.77L804.50,55.90L803.90,56.25L803.38,58.50L803.60,62.75L803.40,64.75L804.25,66.60L806.00,66.96L806.67,67.50L806.79,69.00ZM606.25,75.80L602.25,75.87L600.50,75.54L598.64,74.25L597.72,73.00L597.40,72.00L598.00,71.21L600.75,71.15L601.36,71.50L602.50,73.03L605.00,73.12L605.75,72.80L606.29,71.75L606.60,69.00L606.25,68.40L605.50,68.15L603.25,68.87L600.25,68.53L598.64,67.25L597.40,65.25L597.13,58.50L597.47,56.25L599.00,54.20L602.25,52.90L603.25,52.95L605.50,53.87L607.75,53.15L610.00,53.15L610.54,53.50L610.85,54.25L610.85,71.00L609.50,73.87L607.75,75.30ZM637.50,69.79L634.75,69.85L633.98,69.25L633.88,62.00L634.10,60.75L633.88,59.50L634.10,58.25L633.50,56.45L632.00,55.88L630.00,56.21L628.90,58.25L629.02,69.25L628.00,69.87L625.75,69.85L625.04,69.50L624.88,54.50L625.25,53.54L627.50,53.17L629.75,54.02L632.25,52.95L633.25,52.90L636.00,53.70L637.25,54.68L638.04,56.25L638.37,58.50L638.13,63.00L638.35,67.50L638.09,69.25ZM667.00,70.05L665.50,70.10L663.00,69.60L661.38,68.50L659.95,66.25L659.62,62.50L659.90,57.75L660.22,56.25L661.00,55.18L663.00,53.70L667.00,52.88L669.00,53.21L671.50,54.29L672.79,56.50L673.60,61.00L673.25,61.99L672.50,62.35L667.00,62.62L665.25,62.40L664.00,62.97L663.96,65.50L665.50,67.40L668.00,66.93L669.75,65.15L672.25,65.15L673.03,65.75L672.75,67.30L670.82,69.25L669.25,69.85ZM697.75,70.05L693.25,69.85L691.25,68.61L690.22,67.50L689.40,63.50L689.65,58.50L690.20,56.00L691.75,54.20L695.00,52.90L698.75,53.21L701.00,54.39L702.54,56.25L703.10,59.25L703.09,61.75L702.50,62.29L700.75,62.62L695.00,62.48L694.25,62.73L693.82,63.25L693.65,64.25L694.20,66.00L695.25,67.04L696.50,67.33L697.50,67.05L698.36,66.50L699.01,65.50L699.75,65.15L702.25,65.46L702.99,66.00L702.05,68.00L700.57,69.25ZM759.75,70.05L755.75,69.85L754.25,69.28L753.25,68.61L752.45,67.50L751.65,65.25L751.65,60.00L751.90,57.25L752.48,55.50L754.00,54.07L757.50,52.90L760.50,53.15L763.00,54.20L764.78,56.50L765.10,58.25L765.12,64.75L764.75,66.60L763.25,68.79L761.75,69.55ZM827.00,70.05L823.75,70.05L821.75,69.43L820.25,68.37L819.40,67.00L818.63,61.50L818.90,58.00L819.64,55.75L821.18,54.25L822.50,53.57L826.00,52.88L829.25,53.70L831.36,55.25L831.85,56.25L832.62,60.75L832.35,65.00L831.90,66.00L831.78,67.50L830.00,69.18ZM849.50,69.78L846.75,69.87L845.98,69.50L846.08,58.00L845.00,56.19L843.75,55.67L842.00,56.14L840.90,57.75L840.77,69.50L840.25,69.85L838.00,69.87L836.75,69.28L836.87,62.25L836.63,60.25L836.90,54.00L837.22,53.50L840.25,53.15L841.75,54.02L843.50,53.21L845.75,52.90L848.75,54.20L849.50,54.93L850.10,57.25L849.90,60.00L850.13,61.75L849.88,67.50L850.10,69.00ZM867.75,66.90L866.00,68.54L863.50,69.85L860.25,70.10L857.75,69.80L856.00,69.11L854.22,67.00L854.00,65.75L854.50,65.22L857.50,65.22L859.00,66.86L860.50,67.37L862.75,66.74L863.10,66.00L863.10,64.75L862.74,64.00L861.50,63.20L857.00,61.79L855.13,60.50L854.22,59.50L853.90,58.50L854.22,56.25L856.25,54.20L860.25,52.90L863.00,53.21L865.25,54.20L866.25,55.01L867.35,56.75L867.43,57.25L867.00,57.56L866.25,57.85L863.75,57.85L862.25,56.20L860.50,55.63L859.50,55.95L858.75,56.63L858.21,58.00L860.25,59.78L865.25,61.45L867.75,63.60ZM592.50,69.78L589.75,69.85L588.97,69.25L588.85,57.75L588.25,56.44L587.00,55.88L585.25,55.97L584.25,56.93L583.90,57.75L583.77,69.50L583.25,69.85L582.25,69.88L580.50,69.85L579.90,69.50L579.63,68.75L579.63,55.00L580.25,53.46L581.00,53.15L582.75,53.15L584.50,53.87L586.50,53.15L589.25,53.15L591.50,53.98L592.61,55.25L592.87,56.00L593.02,69.00ZM650.25,70.05L647.75,70.10L644.68,69.00L643.07,67.00L642.40,64.00L642.15,59.25L643.07,56.00L644.50,54.33L647.50,53.15L651.25,53.15L653.75,54.20L655.53,56.25L655.85,57.75L656.10,61.25L655.50,62.27L649.25,62.62L647.75,62.38L646.98,62.75L646.73,65.25L647.75,66.81L648.50,67.30L649.50,67.52L650.25,67.28L652.50,65.21L655.25,65.15L655.77,65.50L655.85,66.50L655.55,67.25L653.50,69.36L652.25,69.85ZM681.25,69.78L678.50,69.85L677.61,69.25L677.42,56.75L677.73,53.75L678.25,53.40L680.75,53.15L682.50,54.58L684.75,53.46L686.75,53.17L687.08,53.50L687.21,55.50L684.25,56.20L682.75,56.95L681.97,57.75L681.67,62.50L681.87,68.75ZM786.00,70.05L784.50,70.10L782.00,69.53L780.63,68.00L780.13,66.00L780.23,53.75L781.00,53.21L782.25,53.12L783.50,53.23L783.93,53.75L784.13,64.25L784.40,66.00L785.25,67.05L787.00,67.37L788.50,66.85L789.10,65.75L789.21,54.00L789.75,53.41L791.25,53.17L792.75,53.48L793.37,54.75L793.27,69.25L792.25,69.85L790.50,69.85L788.25,69.38ZM619.25,69.78L616.50,69.85L615.96,69.50L615.65,68.75L615.87,64.50L615.63,63.00L615.83,56.75L615.63,55.00L615.90,54.25L616.50,53.90L619.25,53.90L619.85,54.50L619.87,68.75ZM813.75,69.79L811.00,69.85L810.15,69.00L810.13,54.75L810.25,54.22L810.75,53.90L813.75,53.90L814.29,54.25L814.60,55.00L814.62,68.50L814.42,69.25ZM605.34,66.00L605.92,65.50L606.35,64.50L606.35,57.75L605.44,56.00L603.00,55.90L602.20,56.50L601.40,58.50L601.65,64.50L602.50,65.78L603.50,66.10ZM651.29,60.00L651.85,59.25L651.85,58.00L650.75,56.19L650.00,55.88L647.97,56.00L646.70,58.00L646.65,59.00L647.00,59.80L647.75,60.12ZM668.44,60.25L668.85,59.50L668.85,57.50L668.11,56.25L667.25,55.88L665.00,56.15L663.90,57.75L664.00,59.78L664.50,60.10ZM698.53,60.00L698.93,59.25L698.85,57.75L697.50,55.98L695.25,55.97L694.00,57.21L693.65,59.25L694.21,60.00ZM713.87,67.25L715.25,66.93L715.85,66.25L715.85,57.75L715.00,56.08L712.50,55.90L711.70,56.50L710.90,58.75L710.90,65.00L712.18,67.00L713.00,67.35ZM759.78,67.00L760.78,65.50L761.10,63.25L760.85,58.00L759.75,56.08L757.50,55.90L756.50,56.46L755.90,58.00L755.65,64.25L756.32,66.25L756.96,67.00ZM826.12,67.25L827.49,66.75L828.10,65.50L828.10,58.00L827.00,56.08L824.50,55.90L823.96,56.25L822.90,58.50L822.90,65.25L824.25,66.92L825.50,67.35Z"/>
</svg>
